<?xml version="1.0" encoding="UTF-8" standalone="no"?>
<svg
   xmlns:dc="http://purl.org/dc/elements/1.1/"
   xmlns:cc="http://creativecommons.org/ns#"
   xmlns:rdf="http://www.w3.org/1999/02/22-rdf-syntax-ns#"
   xmlns:svg="http://www.w3.org/2000/svg"
   xmlns="http://www.w3.org/2000/svg"
   xmlns:sodipodi="http://sodipodi.sourceforge.net/DTD/sodipodi-0.dtd"
   xmlns:inkscape="http://www.inkscape.org/namespaces/inkscape"
   inkscape:version="1.0 (4035a4f, 2020-05-01)"
   sodipodi:docname="oleo.svg"
   id="svg23"
   version="1.1"
   fill="none"
   viewBox="0 0 64 64"
   height="64"
   width="64">
  <metadata
     id="metadata29">
    <rdf:RDF>
      <cc:Work
         rdf:about="">
        <dc:format>image/svg+xml</dc:format>
        <dc:type
           rdf:resource="http://purl.org/dc/dcmitype/StillImage" />
      </cc:Work>
    </rdf:RDF>
  </metadata>
  <defs
     id="defs27" />
  <sodipodi:namedview
     inkscape:current-layer="svg23"
     inkscape:window-maximized="1"
     inkscape:window-y="23"
     inkscape:window-x="0"
     inkscape:cy="33.832983"
     inkscape:cx="46.098166"
     inkscape:zoom="4.8413497"
     showgrid="false"
     id="namedview25"
     inkscape:window-height="776"
     inkscape:window-width="1440"
     inkscape:pageshadow="2"
     inkscape:pageopacity="0"
     guidetolerance="10"
     gridtolerance="10"
     objecttolerance="10"
     borderopacity="1"
     bordercolor="#666666"
     pagecolor="#ffffff" />
  <mask
     fill="white"
     id="path-5-inside-1">
    <path
       id="path16"
       d="M56.9807 16.9289L51.6128 12.9032V8.25806H53.6773V3.09677C53.6773 1.38962 52.2877 0 50.5805 0H34.0644C32.3572 0 30.9676 1.38962 30.9676 3.09677V8.25806H33.0321V12.9032L27.6642 16.9289C27.4288 17.1053 27.207 17.2964 26.9974 17.499C26.2937 15.9007 25.4676 14.3558 24.5326 12.8856L22.7096 10.0222V8.25806H24.7741V3.09677C24.7741 1.38962 23.3844 0 21.6773 0H13.4192C11.7121 0 10.3225 1.38962 10.3225 3.09677V8.25806H12.387V10.0222L10.5609 12.8906C7.0286 18.4425 5.16116 24.8558 5.16116 31.4355C5.16116 34.6457 5.60824 37.8382 6.4908 40.9259L6.63193 41.4204C7.02659 42.8004 7.22568 44.2273 7.22568 45.6608C7.22568 48.0444 6.66217 50.4309 5.59564 52.5635L4.85471 54.0469C4.37991 54.9955 4.12891 56.06 4.12891 57.122C4.12891 60.9148 7.21409 64 11.0069 64H11.9596C13.1778 64 14.3214 63.5262 15.1823 62.6653C15.6521 62.1946 16.2776 61.9355 16.9434 61.9355H18.1531C18.8189 61.9355 19.4444 62.1946 19.9152 62.6653C20.7751 63.5262 21.9187 64 23.137 64H24.0896C25.4893 64 26.8325 63.5539 27.9722 62.7697C29.1239 63.5459 30.5095 64 31.9999 64H52.645C56.6294 64 59.8708 60.7576 59.8708 56.7742V22.7097C59.8708 20.4471 58.7902 18.2863 56.9807 16.9289ZM57.8063 24.7742V55.7419H26.8386V53.6774V51.6129V22.7097C26.8386 21.9914 26.9984 21.2903 27.2816 20.6452H57.3623C57.6465 21.2903 57.8063 21.9914 57.8063 22.7097V24.7742ZM7.22568 31.4355C7.22568 31.0625 7.25239 30.692 7.26499 30.3206C7.60975 30.4662 7.92225 30.6426 8.25592 30.8327C9.21459 31.3795 10.3008 31.999 12.3799 31.999C14.4596 31.999 15.5457 31.3785 16.5044 30.8306C17.3461 30.3503 18.0725 29.9355 19.6047 29.9355C21.1385 29.9355 21.8653 30.3503 22.7075 30.8327C23.2771 31.1578 23.9091 31.5146 24.7731 31.748V33.7011C24.4076 33.5514 24.0805 33.3679 23.7302 33.1683C22.7736 32.6205 21.6864 32 19.6047 32C17.5246 32 16.4384 32.6205 15.4797 33.1683C14.6385 33.6497 13.9127 34.0645 12.3799 34.0645C10.8477 34.0645 10.1213 33.6507 9.2776 33.1694C8.71711 32.8498 8.09564 32.5005 7.25441 32.2671C7.24735 31.9899 7.22568 31.7132 7.22568 31.4355ZM33.0321 3.09677C33.0321 2.52823 33.4958 2.06452 34.0644 2.06452H50.5805C51.1491 2.06452 51.6128 2.52823 51.6128 3.09677V6.19355H33.0321V3.09677ZM49.5483 8.25806V12.3871H35.0966V8.25806H49.5483ZM34.4081 14.4516H50.2358L55.7408 18.5806H28.9031L34.4081 14.4516ZM12.387 3.09677C12.387 2.52823 12.8507 2.06452 13.4192 2.06452H21.6773C22.2458 2.06452 22.7096 2.52823 22.7096 3.09677V6.19355H12.387V3.09677ZM12.3033 13.9995L14.4515 10.623V8.25806H20.645V10.624L22.7912 13.9955C23.8845 15.7132 24.8114 17.5444 25.5639 19.4395C25.0538 20.443 24.7741 21.563 24.7741 22.7097V29.5721C24.4086 29.4224 24.0815 29.2389 23.7317 29.0393C22.7736 28.4914 21.6864 27.871 19.6047 27.871C17.5246 27.871 16.4384 28.4914 15.4797 29.0393C14.6385 29.5207 13.9127 29.9355 12.3799 29.9355C10.8487 29.9355 10.1213 29.5207 9.28012 29.0393C8.75441 28.7399 8.17225 28.4138 7.40814 28.1825C7.91318 23.1492 9.56691 18.2989 12.3033 13.9995ZM23.137 61.9355C22.4711 61.9355 21.8456 61.6764 21.3749 61.2056C20.515 60.3448 19.3713 59.871 18.1531 59.871H16.9434C15.7252 59.871 14.5815 60.3448 13.7206 61.2056C13.2509 61.6764 12.6254 61.9355 11.9596 61.9355H11.0069C8.3527 61.9355 6.19342 59.7762 6.19342 57.122C6.19342 56.379 6.36883 55.6346 6.70149 54.9698L7.44241 53.4864C8.65108 51.0701 9.2902 48.3644 9.2902 45.6608C9.2902 44.5388 9.17477 43.4219 8.96106 42.3226L8.44997 40.2581C7.91822 38.376 7.57346 36.4511 7.38999 34.5096C7.68586 34.6436 7.96358 34.7964 8.25592 34.9627C9.21459 35.5086 10.3008 36.129 12.3799 36.129C14.4596 36.129 15.5457 35.5076 16.5044 34.9607C17.3461 34.4793 18.0725 34.0645 19.6047 34.0645C21.1385 34.0645 21.8653 34.4793 22.7075 34.9607C23.2771 35.2868 23.9091 35.6436 24.7731 35.877V56.7742C24.7731 58.5 25.3829 60.0857 26.3965 61.3296C25.6949 61.7167 24.9061 61.9355 24.0896 61.9355H23.137ZM52.645 61.9355H31.9999C29.5079 61.9355 27.4228 60.1588 26.9429 57.8064H57.702C57.2221 60.1588 55.137 61.9355 52.645 61.9355Z" />
  </mask>
  <g
     style="fill:#322153;fill-opacity:1"
     transform="matrix(0.1234901,0,0,0.1234901,0.14545471,0.58595476)"
     id="g84">
    <path
       style="fill:#322153;fill-opacity:1"
       d="m 316.856,459.321 c -4.143,0 -7.5,3.357 -7.5,7.5 v 2.107 c 0,15.335 -12.477,27.812 -27.812,27.812 H 165.502 c -15.335,0 -27.812,-12.477 -27.812,-27.812 V 353.407 c 0,-4.143 -3.357,-7.5 -7.5,-7.5 -4.143,0 -7.5,3.357 -7.5,7.5 v 115.521 c 0,23.606 19.205,42.812 42.812,42.812 h 116.043 c 23.606,0 42.812,-19.205 42.812,-42.812 v -2.107 c -0.001,-4.142 -3.358,-7.5 -7.501,-7.5 z"
       id="path80" />
    <path
       style="fill:#322153;fill-opacity:1"
       d="m 430.993,270.411 h -41.861 c -1.989,0 -3.896,0.79 -5.303,2.196 l -15.989,15.988 c -3.405,3.406 -7.935,5.282 -12.752,5.282 h -30.731 v -8.975 c 0,-14.661 -4.478,-29.187 -12.654,-41.334 1.702,0.132 3.417,0.221 5.153,0.221 4.143,0 7.5,-3.357 7.5,-7.5 0,-4.143 -3.357,-7.5 -7.5,-7.5 -28.09,0 -50.942,-22.853 -50.942,-50.942 v -19.07 c 0,-2.819 -1.581,-5.4 -4.093,-6.682 L 224.61,133.122 c -2.79,-1.422 -6.166,-0.963 -8.474,1.151 l -16.126,14.771 c -2.757,2.525 -6.462,3.722 -10.178,3.278 -3.712,-0.442 -7.038,-2.476 -9.124,-5.578 -3.492,-5.191 -2.743,-12.099 1.779,-16.424 l 23.572,-22.536 c 5.069,-4.847 11.725,-7.516 18.738,-7.516 H 283.1 c 6.896,0 13.514,2.924 18.158,8.021 l 39.333,43.178 c 1.421,1.56 3.434,2.449 5.544,2.449 h 84.857 c 4.143,0 7.5,-3.357 7.5,-7.5 0,-4.143 -3.357,-7.5 -7.5,-7.5 H 349.448 L 312.347,98.19 C 304.868,89.979 294.207,85.27 283.101,85.27 H 281.13 V 73.646 l 46.011,-14.548 c 4.603,-1.455 8.131,-5.098 9.439,-9.745 1.308,-4.646 0.197,-9.596 -2.971,-13.237 L 321.475,22.16 C 309.229,8.077 291.503,0 272.841,0 h -1.848 c -4.143,0 -7.5,3.357 -7.5,7.5 0,4.143 3.357,7.5 7.5,7.5 h 1.848 c 14.318,0 27.92,6.197 37.315,17.002 l 11.412,13.125 -50.199,15.872 c -3.119,0.986 -5.239,3.88 -5.239,7.151 v 17.12 h -41.332 c -7.603,0 -14.931,2.025 -21.344,5.805 l -22.86,-43.909 c -1.291,-2.481 -3.855,-4.037 -6.652,-4.037 h -42.924 c -0.799,0 -1.449,-0.65 -1.449,-1.449 V 16.45 c 0,-0.799 0.65,-1.449 1.449,-1.449 H 239.03 c 4.143,0 7.5,-3.357 7.5,-7.5 0,-4.143 -3.357,-7.5 -7.5,-7.5 H 131.019 c -4.658,0 -8.861,1.955 -11.857,5.077 H 100.95 c -10.747,0 -19.491,8.743 -19.491,19.49 v 9.129 c 0,10.747 8.744,19.491 19.491,19.491 h 18.335 c 0.685,0.698 1.435,1.329 2.233,1.897 v 64.547 l -1.334,5.351 H 99.771 c -14.625,0 -26.523,11.898 -26.523,26.523 0,14.625 11.898,26.523 26.523,26.523 h 37.442 c -1.379,3.11 -2.151,6.546 -2.151,10.161 0,6.876 2.775,13.115 7.261,17.661 -4.486,4.546 -7.261,10.785 -7.261,17.661 0,6.876 2.775,13.115 7.261,17.661 -4.486,4.546 -7.261,10.785 -7.261,17.661 0,8.737 4.479,16.445 11.258,20.958 l -5.005,5.004 c -9.553,9.554 -15.917,22.174 -17.92,35.535 -0.614,4.097 2.209,7.915 6.305,8.529 0.378,0.057 0.752,0.084 1.122,0.084 3.65,0 6.85,-2.67 7.407,-6.389 1.53,-10.211 6.394,-19.854 13.692,-27.152 l 11.409,-11.408 h 24.333 c 13.874,0 25.161,-11.287 25.161,-25.161 0,-6.876 -2.775,-13.115 -7.261,-17.661 4.486,-4.546 7.261,-10.785 7.261,-17.661 0,-6.876 -2.775,-13.115 -7.261,-17.661 1.072,-1.087 2.048,-2.269 2.91,-3.535 h 47.167 c 6.151,15.333 17.886,27.846 32.693,34.979 10e-4,0.002 0.002,0.004 0.004,0.006 l 9.141,12.122 c 7.66,10.157 11.879,22.758 11.879,35.479 v 149.955 c 0,4.143 3.357,7.5 7.5,7.5 4.143,0 7.5,-3.357 7.5,-7.5 v -125.98 h 30.731 c 8.825,0 17.121,-3.437 23.358,-9.676 l 13.792,-13.791 h 38.755 c 4.143,0 7.5,-3.357 7.5,-7.5 0,-4.143 -3.357,-7.499 -7.5,-7.499 z M 191.625,100.835 172.122,119.481 c -1.749,1.672 -3.224,3.527 -4.447,5.502 h -8.19 c 4.216,-7.182 6.469,-15.383 6.469,-23.915 V 58.129 h 3.438 z m -55.329,21.532 c 0.147,-0.594 0.223,-1.203 0.223,-1.814 V 58.129 h 14.436 v 42.938 c 0,8.532 -3.293,16.583 -9.272,22.669 l -7.676,7.813 z M 96.459,33.696 v -9.129 c 0,-2.476 2.015,-4.49 4.491,-4.49 h 13.619 v 18.11 H 100.95 c -2.476,0.001 -4.491,-2.014 -4.491,-4.491 z m -8.212,117.81 c 0,-6.354 5.169,-11.523 11.523,-11.523 h 16.75 c -0.69,4.875 1.613,9.612 6.004,12.07 1.867,1.045 3.888,1.555 5.887,1.555 3.109,0 6.166,-1.235 8.5,-3.61 l 9.838,-10.015 h 16.787 c 0.075,5.242 1.61,10.503 4.725,15.135 2.157,3.208 4.93,5.881 8.109,7.912 H 99.771 c -6.355,-0.001 -11.524,-5.17 -11.524,-11.524 z m 99.416,26.523 c 5.603,0 10.161,4.559 10.161,10.161 0,5.602 -4.559,10.161 -10.161,10.161 h -27.44 c -5.603,0 -10.161,-4.559 -10.161,-10.161 0,-5.602 4.559,-10.161 10.161,-10.161 z m 10.161,45.484 c 0,5.603 -4.559,10.161 -10.161,10.161 h -27.44 c -5.603,0 -10.161,-4.559 -10.161,-10.161 0,-5.602 4.559,-10.161 10.161,-10.161 h 27.44 c 5.603,0 10.161,4.558 10.161,10.161 z m -10.161,45.483 h -27.44 c -5.603,0 -10.161,-4.559 -10.161,-10.161 0,-5.602 4.559,-10.161 10.161,-10.161 h 27.44 c 5.603,0 10.161,4.559 10.161,10.161 0,5.602 -4.558,10.161 -10.161,10.161 z m 25.139,-81.68 c -0.314,-9.136 -5.516,-17.051 -13.073,-21.198 3.822,-1.207 7.384,-3.237 10.413,-6.012 l 12.288,-11.257 28.482,14.522 v 14.476 c 0,3.216 0.243,6.375 0.69,9.469 z"
       id="path82" />
  </g>
</svg>
