<?xml version="1.0" encoding="UTF-8" standalone="no"?>
<svg
   xmlns:dc="http://purl.org/dc/elements/1.1/"
   xmlns:cc="http://creativecommons.org/ns#"
   xmlns:rdf="http://www.w3.org/1999/02/22-rdf-syntax-ns#"
   xmlns:svg="http://www.w3.org/2000/svg"
   xmlns="http://www.w3.org/2000/svg"
   xmlns:sodipodi="http://sodipodi.sourceforge.net/DTD/sodipodi-0.dtd"
   xmlns:inkscape="http://www.inkscape.org/namespaces/inkscape"
   inkscape:version="1.0 (4035a4f, 2020-05-01)"
   sodipodi:docname="baterias.svg"
   id="svg24"
   version="1.1"
   fill="none"
   viewBox="0 0 64 64"
   height="64"
   width="64">
  <metadata
     id="metadata30">
    <rdf:RDF>
      <cc:Work
         rdf:about="">
        <dc:format>image/svg+xml</dc:format>
        <dc:type
           rdf:resource="http://purl.org/dc/dcmitype/StillImage" />
      </cc:Work>
    </rdf:RDF>
  </metadata>
  <defs
     id="defs28" />
  <sodipodi:namedview
     inkscape:current-layer="svg24"
     inkscape:window-maximized="1"
     inkscape:window-y="23"
     inkscape:window-x="0"
     inkscape:cy="13.162087"
     inkscape:cx="37.534161"
     inkscape:zoom="4.6303929"
     showgrid="false"
     id="namedview26"
     inkscape:window-height="776"
     inkscape:window-width="1440"
     inkscape:pageshadow="2"
     inkscape:pageopacity="0"
     guidetolerance="10"
     gridtolerance="10"
     objecttolerance="10"
     borderopacity="1"
     bordercolor="#666666"
     pagecolor="#ffffff" />
  <g
     style="stroke:none;stroke-opacity:1;fill:#322153;fill-opacity:1"
     transform="matrix(1.0451027,0,0,1.0451027,0.50867168,8.0690032)"
     fill-rule="nonzero"
     fill="#000000"
     id="037---Sheet">
    <path
       style="stroke:none;stroke-opacity:1;fill:#322153;fill-opacity:1"
       d="M 59.813,24.064 56.839,9.492 C 55.639911,3.9684284 50.762187,0.02100217 45.11,0 H 15.89 C 10.238222,0.02061462 5.3607328,3.9677713 4.162,9.491 L 0.3,27.561 c -0.001494,0.02398 -0.001494,0.04802 0,0.072 -0.89155926,4.330543 0.24739883,8.830982 3.0916117,12.216087 C 6.2358247,43.234191 10.472599,45.131802 14.892,45 H 54.5 c 1.552161,7.8e-5 3.032093,-0.655694 4.074709,-1.805543 1.042617,-1.14985 1.550838,-2.686712 1.399291,-4.231457 -0.26945,-2.322197 -1.957177,-4.230618 -4.229,-4.782 3.235125,-2.260882 4.830234,-6.21865 4.067,-10.091 -10e-4,-0.009 0.002,-0.017 0.001,-0.026 z M 6.118,9.908 C 7.1168556,5.3059797 11.180859,2.0171811 15.89,2 h 29.22 c 4.706485,0.016448 8.769323,3.3013132 9.771,7.9 l 1.767,8.651 C 54.822758,16.909372 52.454883,16.000761 50,16 H 14.5 C 10.527107,15.987544 6.7262614,17.620098 4,20.51 3.93,20.583 3.872,20.663 3.8,20.737 Z M 50,34 H 14.5 C 13.510877,33.998651 12.56837,33.579433 11.904978,32.845759 11.241586,32.112085 10.919074,31.132265 11.017,30.148 11.267015,28.315589 12.851008,26.961689 14.7,27 H 50 c 0.552285,0 1,-0.447715 1,-1 0,-0.552285 -0.447715,-1 -1,-1 H 14.7 c -2.875429,-0.03046 -5.3163643,2.100736 -5.674,4.954 -0.1523383,1.54579 0.3553253,3.084015 1.397839,4.235465 C 11.466353,35.340916 12.946723,35.998461 14.5,36 h 39.807 c 1.849325,-0.03806 3.432003,1.319446 3.676,3.153 0.101217,0.98619 -0.223721,1.968644 -0.893,2.7 C 56.426121,42.582186 55.486126,42.998469 54.5,43 H 14.892 C 8.1208572,43.112369 2.4541961,37.888883 2.016,31.131 1.8469148,27.711655 3.0862077,24.372355 5.4451054,21.891204 7.8040031,19.410054 11.076479,18.003756 14.5,18 H 50 c 4.418278,0 8,3.581722 8,8 0,4.418278 -3.581722,8 -8,8 z"
       id="Shape" />
    <path
       style="stroke:none;stroke-opacity:1;fill:#322153;fill-opacity:1"
       d="m 8.844,11.51 c 0.068689,0.01473 0.1387501,0.0221 0.209,0.022 C 9.5247007,11.531468 9.9318865,11.201384 10.03,10.74 10.629572,7.9809817 13.066602,6.0097315 15.89,6 H 24 C 24.552285,6 25,5.5522847 25,5 25,4.4477152 24.552285,4 24,4 H 15.89 C 12.123557,4.013553 8.8728047,6.6434303 8.073,10.324 8.017896,10.583521 8.06818,10.854302 8.2127813,11.076738 8.3573833,11.299174 8.5844508,11.45503 8.844,11.51 Z"
       id="path83" />
    <circle
       style="stroke:none;stroke-opacity:1;fill:#322153;fill-opacity:1"
       r="1"
       cy="5"
       cx="28"
       id="Oval" />
  </g>
</svg>
