<?xml version="1.0" encoding="UTF-8" standalone="no"?>
<svg
   xmlns:dc="http://purl.org/dc/elements/1.1/"
   xmlns:cc="http://creativecommons.org/ns#"
   xmlns:rdf="http://www.w3.org/1999/02/22-rdf-syntax-ns#"
   xmlns:svg="http://www.w3.org/2000/svg"
   xmlns="http://www.w3.org/2000/svg"
   xmlns:sodipodi="http://sodipodi.sourceforge.net/DTD/sodipodi-0.dtd"
   xmlns:inkscape="http://www.inkscape.org/namespaces/inkscape"
   width="64"
   height="64"
   viewBox="0 0 64 64"
   fill="none"
   version="1.1"
   id="svg45"
   sodipodi:docname="epi.svg"
   inkscape:version="1.0 (4035a4f, 2020-05-01)">
  <metadata
     id="metadata49">
    <rdf:RDF>
      <cc:Work
         rdf:about="">
        <dc:format>image/svg+xml</dc:format>
        <dc:type
           rdf:resource="http://purl.org/dc/dcmitype/StillImage" />
      </cc:Work>
    </rdf:RDF>
  </metadata>
  <sodipodi:namedview
     inkscape:document-rotation="0"
     pagecolor="#ffffff"
     bordercolor="#666666"
     borderopacity="1"
     objecttolerance="10"
     gridtolerance="10"
     guidetolerance="10"
     inkscape:pageopacity="0"
     inkscape:pageshadow="2"
     inkscape:window-width="1440"
     inkscape:window-height="776"
     id="namedview47"
     showgrid="false"
     inkscape:zoom="4.2750512"
     inkscape:cx="79.416915"
     inkscape:cy="33.64631"
     inkscape:window-x="0"
     inkscape:window-y="23"
     inkscape:window-maximized="1"
     inkscape:current-layer="layer1" />
  <defs
     id="defs43">
    <clipPath
       id="clip0">
      <rect
         width="64"
         height="64"
         fill="white"
         id="rect40" />
    </clipPath>
  </defs>
  <g
     inkscape:label="Layer 2"
     id="layer2"
     inkscape:groupmode="layer" />
  <path
     id="rect10"
     style="fill:#34cb79;stroke-width:0.587375"
     d="m 2.728374,52.071451 c 9.305344,0.28 18.472304,1.246362 27.777647,1.231368 9.391178,-0.01513 20.345168,-1.371246 29.736338,-1.588701 l -3.68609,9.037399 -24.818317,-0.577707 -25.99836,0.932454 z"
     sodipodi:nodetypes="csccccc" />
  <path
     id="path71"
     d="m 60.845436,49.982077 h -0.79553 C 59.119507,37.809774 48.917567,28.190045 36.510999,28.190045 c -6.40601,0 -12.551484,2.638167 -17.000207,7.264616 -8.375404,0.02567 -15.2872319,6.383371 -16.1917223,14.527416 H 2.4912146 c -1.0029178,0 -1.81600276,0.813085 -1.81600276,1.816003 0,6.341845 5.15950596,11.501351 11.50135116,11.501351 h 38.983525 c 6.341845,0 11.501351,-5.159506 11.501351,-11.501351 0,-1.002918 -0.813085,-1.816003 -1.816003,-1.816003 z m -4.441821,0 H 52.75357 C 51.847264,41.821445 44.909286,35.454055 36.510999,35.454055 c -3.00839,0 -5.910725,0.818412 -8.467778,2.377632 -1.197472,-0.729912 -2.496157,-1.309338 -3.868934,-1.713822 3.500043,-2.758871 7.843195,-4.295815 12.336712,-4.295815 10.40267,0 18.972023,7.993197 19.892616,18.160027 z m -20.599404,0 c -0.131599,-1.18476 -0.38923,-2.331989 -0.761026,-3.427039 0.476519,-0.13511 0.969988,-0.204966 1.467814,-0.204966 2.367463,0 4.38601,1.518299 5.135656,3.632005 z m 9.604112,0 c -0.843593,-4.139517 -4.512282,-7.264011 -8.897324,-7.264011 -1.035605,0 -2.058983,0.179422 -3.02885,0.525067 -0.663567,-1.075679 -1.447717,-2.069274 -2.334411,-2.961295 1.672296,-0.785845 3.491568,-1.195777 5.363261,-1.195777 6.392935,0 11.697843,4.743762 12.581752,10.896016 z M 19.56164,39.086061 c 6.392935,0 11.697843,4.743762 12.581752,10.896016 h -3.684428 c -0.843593,-4.139517 -4.512282,-7.264011 -8.897324,-7.264011 -4.385041,0 -8.053609,3.124494 -8.897323,7.264011 H 6.9798891 C 7.8637982,43.829823 13.168705,39.086061 19.56164,39.086061 Z m 5.135656,10.896016 H 14.425985 c 0.749646,-2.113706 2.768193,-3.632005 5.135655,-3.632005 2.367463,0 4.38601,1.518299 5.135656,3.632005 z m 26.462792,9.685348 H 12.176563 c -3.7144524,0 -6.8360401,-2.586593 -7.6578419,-6.053342 H 58.81793 c -0.821802,3.466749 -3.94339,6.053342 -7.657842,6.053342 z"
     style="fill:#322153;fill-opacity:1;stroke-width:0.121067" />
  <path
     sodipodi:nodetypes="csscccscc"
     d="m 25.324786,8.3124271 c 0.884904,-0.5306274 1.791788,-0.9605878 3.164051,0.2432966 2.135943,1.8738603 5.497275,1.0482814 8.346652,1.0373478 3.943597,-0.015132 3.721604,0.048074 7.665197,-0.1693805 1.85774,1.561665 2.22895,2.610514 1.06905,4.172179 l -7.496979,-0.294655 c -3.339237,0.23765 -6.130649,-1.557197 -7.926181,0.648011 -1.00105,1.229454 -3.846568,2.373402 -5.444315,2.454508 z"
     style="fill:#34cb79;stroke-width:0.380629"
     id="path175" />
  <path
     id="path73"
     d="M 44.295559,8.9108742 H 29.986928 C 29.595065,7.5310348 28.324622,6.5170859 26.820904,6.5170859 h -9.575153 c -0.495753,0 -0.89767,0.4019171 -0.89767,0.8976706 0,0.4957535 0.401917,0.8976706 0.89767,0.8976706 h 6.283694 v 2.3937879 h -6.283694 c -0.495753,0 -0.89767,0.401917 -0.89767,0.897671 0,0.495754 0.401917,0.897671 0.89767,0.897671 h 6.283694 v 2.393788 h -6.283694 c -0.495753,0 -0.89767,0.401917 -0.89767,0.897671 0,0.495753 0.401917,0.89767 0.89767,0.89767 h 9.575153 c 1.503718,0 2.774161,-1.013949 3.166024,-2.393788 h 14.308631 c 1.484926,0 2.693011,-1.208085 2.693011,-2.693012 0,-1.484927 -1.208085,-2.6930118 -2.693011,-2.6930118 z M 28.317022,13.399227 c 0,0.824959 -0.671159,1.496118 -1.496118,1.496118 H 25.324786 V 8.3124271 h 1.496118 c 0.824959,0 1.496118,0.6711584 1.496118,1.4961177 z m 15.978537,-0.89767 H 30.112363 v -1.795342 h 14.183196 c 0.494975,0 0.89767,0.402695 0.89767,0.897671 0,0.494976 -0.402695,0.897671 -0.89767,0.897671 z"
     style="fill:#322153;fill-opacity:1;stroke-width:0.0598448" />
  <g
     inkscape:label="Layer 1"
     id="layer1"
     inkscape:groupmode="layer" />
</svg>
