<?xml version="1.0" encoding="UTF-8" standalone="no"?>
<svg
   xmlns:dc="http://purl.org/dc/elements/1.1/"
   xmlns:cc="http://creativecommons.org/ns#"
   xmlns:rdf="http://www.w3.org/1999/02/22-rdf-syntax-ns#"
   xmlns:svg="http://www.w3.org/2000/svg"
   xmlns="http://www.w3.org/2000/svg"
   xmlns:sodipodi="http://sodipodi.sourceforge.net/DTD/sodipodi-0.dtd"
   xmlns:inkscape="http://www.inkscape.org/namespaces/inkscape"
   inkscape:version="1.0 (4035a4f, 2020-05-01)"
   sodipodi:docname="papeis-papelao.svg"
   id="svg20"
   version="1.1"
   fill="none"
   viewBox="0 0 64 64"
   height="64"
   width="64">
  <metadata
     id="metadata26">
    <rdf:RDF>
      <cc:Work
         rdf:about="">
        <dc:format>image/svg+xml</dc:format>
        <dc:type
           rdf:resource="http://purl.org/dc/dcmitype/StillImage" />
      </cc:Work>
    </rdf:RDF>
  </metadata>
  <defs
     id="defs24" />
  <sodipodi:namedview
     inkscape:current-layer="svg20"
     inkscape:window-maximized="1"
     inkscape:window-y="23"
     inkscape:window-x="0"
     inkscape:cy="26.441047"
     inkscape:cx="36.070561"
     inkscape:zoom="4.5112706"
     showgrid="false"
     id="namedview22"
     inkscape:window-height="776"
     inkscape:window-width="1440"
     inkscape:pageshadow="2"
     inkscape:pageopacity="0"
     guidetolerance="10"
     gridtolerance="10"
     objecttolerance="10"
     borderopacity="1"
     bordercolor="#666666"
     pagecolor="#ffffff" />
  <path
     sodipodi:nodetypes="csccccc"
     d="m 12.993859,16.189313 c 6.234853,0.993972 12.248039,-1.724114 18.482892,-1.777343 6.292363,-0.05372 12.806394,2.549288 19.098757,1.777343 V 41.343726 L 31.47672,46.220401 12.993859,41.343726 Z"
     style="fill:#34cb79;stroke-width:0.905878"
     id="rect10" />
  <g
     style="fill:#322153;fill-opacity:1"
     transform="matrix(0.12129543,0,0,0.12129543,0.93793954,-0.6062978)"
     id="g89">
	<path
   style="fill:#322153;fill-opacity:1"
   d="m 346.939,195.59 c -31.867,-1.999 -60.124,-11.3 -81.717,-26.896 -5.176,-3.738 -12.15,-3.791 -17.382,-0.13 -22.425,15.691 -51.05,25.037 -82.779,27.026 -8.268,0.519 -14.55,7.642 -14.032,15.91 0.499,7.948 7.101,14.062 14.957,14.062 0.315,0 0.634,-0.01 0.953,-0.03 33.324,-2.09 63.997,-11.281 89.388,-26.704 24.782,15.412 55.224,24.602 88.734,26.704 8.27,0.509 15.391,-5.764 15.91,-14.031 0.518,-8.269 -5.764,-15.392 -14.032,-15.911 z"
   id="path81" />

	<path
   style="fill:#322153;fill-opacity:1"
   d="M 316,256 H 196 c -8.284,0 -15,6.716 -15,15 0,8.284 6.716,15 15,15 h 120 c 8.284,0 15,-6.716 15,-15 0,-8.284 -6.716,-15 -15,-15 z"
   id="path83" />

	<path
   style="fill:#322153;fill-opacity:1"
   d="M 512,241 C 512,183.103 464.897,136 407,136 h -46.835 c -24.793,0 -46.099,-5.739 -61.616,-16.596 C 286.016,110.635 271.302,106 256,106 c -15.302,0 -30.015,4.635 -42.549,13.404 C 197.934,130.261 176.628,136 151.835,136 H 105 C 47.103,136 0,183.103 0,241 0,297.016 44.093,342.926 99.393,345.85 116.247,359.427 179.629,406 256,406 332.37,406 395.753,359.427 412.606,345.85 467.907,342.926 512,297.016 512,241 Z m -482,0 c 0,-36.219 25.808,-66.522 60,-73.491 V 314.49 C 55.808,307.522 30,277.219 30,241 Z m 90,82.862 V 166 h 31.835 c 31.42,0 57.937,-7.407 78.814,-22.015 C 238.116,138.761 246.882,136 256,136 c 9.118,0 17.884,2.761 25.351,7.985 C 302.229,158.593 328.745,166 360.165,166 H 392 V 323.862 C 375.297,336.856 319.684,376 256,376 192.316,376 136.703,336.856 120,323.862 Z m 302,-9.371 V 167.509 c 34.192,6.968 60,37.271 60,73.491 0,36.22 -25.808,66.522 -60,73.491 z"
   id="path85" />

	<path
   style="fill:#322153;fill-opacity:1"
   d="m 286,316 h -60 c -8.284,0 -15,6.716 -15,15 0,8.284 6.716,15 15,15 h 60 c 8.284,0 15,-6.716 15,-15 0,-8.284 -6.716,-15 -15,-15 z"
   id="path87" />

</g>
</svg>
