<?xml version="1.0" encoding="UTF-8" standalone="no"?>
<svg
   xmlns:dc="http://purl.org/dc/elements/1.1/"
   xmlns:cc="http://creativecommons.org/ns#"
   xmlns:rdf="http://www.w3.org/1999/02/22-rdf-syntax-ns#"
   xmlns:svg="http://www.w3.org/2000/svg"
   xmlns="http://www.w3.org/2000/svg"
   xmlns:sodipodi="http://sodipodi.sourceforge.net/DTD/sodipodi-0.dtd"
   xmlns:inkscape="http://www.inkscape.org/namespaces/inkscape"
   inkscape:version="1.0 (4035a4f, 2020-05-01)"
   sodipodi:docname="organicos.svg"
   id="svg21"
   version="1.1"
   fill="none"
   viewBox="0 0 64 64"
   height="64"
   width="64">
  <metadata
     id="metadata27">
    <rdf:RDF>
      <cc:Work
         rdf:about="">
        <dc:format>image/svg+xml</dc:format>
        <dc:type
           rdf:resource="http://purl.org/dc/dcmitype/StillImage" />
      </cc:Work>
    </rdf:RDF>
  </metadata>
  <defs
     id="defs25" />
  <sodipodi:namedview
     inkscape:current-layer="svg21"
     inkscape:window-maximized="1"
     inkscape:window-y="23"
     inkscape:window-x="0"
     inkscape:cy="25.698738"
     inkscape:cx="77.686551"
     inkscape:zoom="3.8578357"
     showgrid="false"
     id="namedview23"
     inkscape:window-height="776"
     inkscape:window-width="1440"
     inkscape:pageshadow="2"
     inkscape:pageopacity="0"
     guidetolerance="10"
     gridtolerance="10"
     objecttolerance="10"
     borderopacity="1"
     bordercolor="#666666"
     pagecolor="#ffffff" />
  <mask
     fill="white"
     id="path-4-inside-1">
    <path
       id="path14"
       d="M52.6663 49.4727C57.098 49.4727 60.7033 53.0125 60.7033 57.3636V60.7455V63H3.29605L3.2959 60.7455V57.3636C3.2959 54.1981 5.20873 51.4691 7.9552 50.2119L9.90784 43.8226C9.96259 43.6461 10.034 43.4798 10.1056 43.3131C10.1323 43.2511 10.1589 43.189 10.1848 43.1263V25.205C10.1848 23.0561 11.4008 21.1241 13.3585 20.1636L14.7774 19.4668V16.7818H12.4811V13.4C12.4811 11.5357 14.0267 10.0182 15.9255 10.0182H22.8144C24.7132 10.0182 26.2589 11.5357 26.2589 13.4V16.7818H23.9626V19.4668L25.3826 20.1636C26.4495 20.6865 27.2943 21.5254 27.8527 22.5442C28.2614 22.471 28.6813 22.4182 29.127 22.4182C30.2151 22.4182 31.1845 22.6626 32.0708 23.1624C32.7553 22.8453 33.8631 22.4182 34.8722 22.4182C37.3843 22.4182 39.2943 23.7226 40.9806 24.8742L40.983 24.8758C41.6002 25.2975 42.1961 25.6806 42.8005 26.0185L45.7774 24.0695V21.2909H41.4556C38.7736 21.2909 36.5922 19.1492 36.5922 16.516C36.5922 15.7784 36.7699 15.0403 37.1052 14.3809L42.5751 3.63984C43.4043 2.01113 45.071 1 46.9255 1C48.7801 1 50.4468 2.01113 51.2759 3.63874L56.7459 14.3798C57.0811 15.0403 57.2589 15.7784 57.2589 16.516C57.2589 19.1492 55.0775 21.2909 52.3955 21.2909H48.0737V24.0695L54.4507 28.245L53.177 30.1208L48.0737 26.7798V29.7058L54.4507 33.8814L53.177 35.7572L48.0737 32.4161V35.3422L54.4507 39.5177L53.177 41.3936L48.0737 38.0525V40.9785L54.4507 45.153L53.177 47.0288L48.0737 43.6877V47.3084C49.7993 47.5517 51.3494 48.3295 52.5401 49.4727H52.6663ZM39.1593 15.3887C38.9827 15.7371 38.8885 16.1268 38.8885 16.516C38.8885 17.9058 40.04 19.0364 41.4556 19.0364H52.3955C53.8111 19.0364 54.9626 17.9058 54.9626 16.516C54.9626 16.1268 54.8695 15.7371 54.6918 15.3887L49.2218 4.64767C48.9679 4.14954 48.5569 3.77965 48.0737 3.54077H45.7774C45.2941 3.77965 44.8832 4.14954 44.6292 4.64767L39.1593 15.3887ZM52.6663 56.1224V55.1091C52.6663 52.3867 50.6901 50.1096 48.0737 49.5867V50.6C48.0737 53.3213 50.0499 55.5995 52.6663 56.1224ZM41.1848 56.1224C43.8012 55.5995 45.7774 53.3224 45.7774 50.6V49.5867C43.161 50.1096 41.1848 52.3867 41.1848 55.1091V56.1224ZM15.9255 12.2727C15.2931 12.2727 14.7774 12.7791 14.7774 13.4V14.5273H23.9626V13.4C23.9626 12.7791 23.4468 12.2727 22.8144 12.2727H15.9255ZM17.0737 20.8605L14.3849 22.1804C13.2099 22.7561 12.4811 23.9153 12.4811 25.205V40.0252C13.1942 39.4434 14.0004 38.9799 14.8839 38.6701L16.2277 32.0754C16.7429 29.5495 18.3894 27.4028 20.633 26.3356C21.4403 25.9508 22.2061 25.4279 23.0162 24.8747C23.8224 24.3243 24.6824 23.7414 25.6321 23.2807C25.3058 22.8205 24.8764 22.4363 24.355 22.1804L21.6663 20.8605V16.7818H17.0737V20.8605ZM11.3329 51.7273C8.16768 51.7273 5.59219 54.2559 5.59219 57.3636V60.7455H58.407V57.3636C58.407 54.8185 56.6685 52.6878 54.3044 51.9898C54.726 52.947 54.9626 54.0011 54.9626 55.1091V58.4909H53.8144C50.8891 58.4909 48.3321 56.9431 46.9255 54.6434C45.5189 56.9431 42.962 58.4909 40.0366 58.4909H38.8885V55.1091C38.8885 51.1422 41.8884 47.8583 45.7774 47.3084V43.6877L40.6729 47.0277L39.3992 45.1519L45.7774 40.9774V38.0514L40.6729 41.3914L39.3992 39.5155L45.7774 35.3411V32.415L40.6729 35.755L39.3992 33.8792L45.7774 29.7047V26.7787L40.6729 30.1197L39.3992 28.2439L40.6886 27.4006C40.3444 27.1777 40.0024 26.952 39.6717 26.7253C38.1261 25.669 36.6656 24.6727 34.8722 24.6727C34.1927 24.6727 33.1018 25.145 32.5737 25.4417L31.9194 25.811L31.3128 25.3685C30.6575 24.8868 29.9836 24.6727 29.127 24.6727C27.3336 24.6727 25.8732 25.669 24.3275 26.7242C23.4804 27.3038 22.6031 27.9026 21.6343 28.3633C20.6333 28.8398 19.8001 29.6249 19.2222 30.5955L19.2218 30.5954L19.221 30.5976C19.2151 30.6075 19.2093 30.6173 19.2035 30.6272C19.2055 30.6279 19.2076 30.6286 19.2096 30.6292L18.4454 32.752C18.4406 32.7505 18.4358 32.749 18.4309 32.7475L17.3159 38.2226C17.3607 38.2211 17.4044 38.2163 17.448 38.2115C17.5003 38.2057 17.5525 38.2 17.6063 38.2H29.7033V40.4545H17.6063C15.0515 40.4545 12.8416 42.0689 12.1077 44.471L10.5683 49.5113C10.8211 49.4876 11.0745 49.4727 11.3329 49.4727H22.8144V51.7273H11.3329Z"
       clip-rule="evenodd"
       fill-rule="evenodd" />
  </mask>
  <g
     style="fill:#322153;fill-opacity:1"
     transform="matrix(0.12274356,0,0,0.12274356,0.46154883,0.89310539)"
     id="g324">
    <g
       style="fill:#322153;fill-opacity:1"
       id="g267">
	<g
   style="fill:#322153;fill-opacity:1"
   id="g265">
		<path
   style="fill:#322153;fill-opacity:1"
   d="M 508.666,125.502 405.483,46.127 C 399.512,41.53 392.722,38.108 385.475,36.044 l -48.208,-13.775 -15.5,-15.5 C 318.895,3.885 314.383,3.438 311,5.702 294.376,15.696 275.395,21.091 256,21.335 236.614,21.033 217.647,15.642 201,5.702 197.617,3.442 193.108,3.889 190.233,6.769 l -15.5,15.5 -48.208,13.775 c -7.248,2.064 -14.037,5.486 -20.008,10.083 L 3.333,125.502 c -3.559,2.737 -4.39,7.764 -1.9,11.5 l 68.267,102.4 c 1.325,1.992 3.427,3.335 5.792,3.7 2.363,0.359 4.769,-0.281 6.642,-1.766 l 28.8,-23.042 v 280.908 c -10e-4,2.264 0.897,4.435 2.498,6.035 1.601,1.6 3.772,2.499 6.035,2.498 h 273.067 c 2.264,10e-4 4.435,-0.897 6.035,-2.498 1.601,-1.601 2.499,-3.772 2.498,-6.035 V 218.294 l 28.8,23.042 c 1.869,1.493 4.278,2.134 6.642,1.767 2.364,-0.368 4.464,-1.71 5.792,-3.7 l 68.267,-102.4 c 2.488,-3.737 1.657,-8.764 -1.902,-11.501 z M 384,490.669 H 256 128 v -17.067 h 256 z m 49.266,-268.475 -16.31,-13.051 42.411,-63.607 c 2.587,-3.92 1.519,-9.194 -2.389,-11.8 -3.908,-2.605 -9.187,-1.563 -11.811,2.333 l -41.586,62.372 -5.714,-4.572 c -2.562,-2.049 -6.073,-2.449 -9.03,-1.027 -2.957,1.422 -4.838,4.413 -4.837,7.694 v 256 H 128 v -256 c 0,-3.281 -1.88,-6.272 -4.837,-7.693 -2.957,-1.422 -6.467,-1.023 -9.03,1.027 l -5.714,4.572 -41.586,-62.372 c -2.634,-3.869 -7.893,-4.894 -11.787,-2.298 -3.894,2.596 -4.971,7.845 -2.412,11.764 l 42.411,63.607 -16.311,13.051 -58.675,-88.025 96.859,-74.508 c 4.265,-3.284 9.115,-5.727 14.292,-7.2 l 50.333,-14.383 c 1.395,-0.399 2.666,-1.148 3.691,-2.175 l 12.425,-12.425 c 17.974,9.569 37.981,14.687 58.342,14.925 20.361,-0.238 40.368,-5.356 58.342,-14.925 l 12.425,12.425 c 1.026,1.027 2.296,1.776 3.692,2.175 l 50.333,14.384 c 5.177,1.473 10.027,3.916 14.292,7.2 l 96.858,74.508 z"
   id="path263" />

	</g>

</g>
    <g
       style="fill:#322153;fill-opacity:1"
       id="g269">
</g>
    <g
       style="fill:#322153;fill-opacity:1"
       id="g271">
</g>
    <g
       style="fill:#322153;fill-opacity:1"
       id="g273">
</g>
    <g
       style="fill:#322153;fill-opacity:1"
       id="g275">
</g>
    <g
       style="fill:#322153;fill-opacity:1"
       id="g277">
</g>
    <g
       style="fill:#322153;fill-opacity:1"
       id="g279">
</g>
    <g
       style="fill:#322153;fill-opacity:1"
       id="g281">
</g>
    <g
       style="fill:#322153;fill-opacity:1"
       id="g283">
</g>
    <g
       style="fill:#322153;fill-opacity:1"
       id="g285">
</g>
    <g
       style="fill:#322153;fill-opacity:1"
       id="g287">
</g>
    <g
       style="fill:#322153;fill-opacity:1"
       id="g289">
</g>
    <g
       style="fill:#322153;fill-opacity:1"
       id="g291">
</g>
    <g
       style="fill:#322153;fill-opacity:1"
       id="g293">
</g>
    <g
       style="fill:#322153;fill-opacity:1"
       id="g295">
</g>
    <g
       style="fill:#322153;fill-opacity:1"
       id="g297">
</g>
  </g>
</svg>
