<?xml version="1.0" encoding="UTF-8" standalone="no"?>
<svg
   xmlns:dc="http://purl.org/dc/elements/1.1/"
   xmlns:cc="http://creativecommons.org/ns#"
   xmlns:rdf="http://www.w3.org/1999/02/22-rdf-syntax-ns#"
   xmlns:svg="http://www.w3.org/2000/svg"
   xmlns="http://www.w3.org/2000/svg"
   xmlns:sodipodi="http://sodipodi.sourceforge.net/DTD/sodipodi-0.dtd"
   xmlns:inkscape="http://www.inkscape.org/namespaces/inkscape"
   inkscape:version="1.0 (4035a4f, 2020-05-01)"
   sodipodi:docname="lampada.svg"
   id="svg29"
   version="1.1"
   fill="none"
   viewBox="0 0 64 64"
   height="64"
   width="64">
  <metadata
     id="metadata33">
    <rdf:RDF>
      <cc:Work
         rdf:about="">
        <dc:format>image/svg+xml</dc:format>
        <dc:type
           rdf:resource="http://purl.org/dc/dcmitype/StillImage" />
      </cc:Work>
    </rdf:RDF>
  </metadata>
  <sodipodi:namedview
     inkscape:current-layer="svg29"
     inkscape:window-maximized="1"
     inkscape:window-y="23"
     inkscape:window-x="0"
     inkscape:cy="50.452871"
     inkscape:cx="46.8469"
     inkscape:zoom="4.1843498"
     showgrid="false"
     id="namedview31"
     inkscape:window-height="776"
     inkscape:window-width="1440"
     inkscape:pageshadow="2"
     inkscape:pageopacity="0"
     guidetolerance="10"
     gridtolerance="10"
     objecttolerance="10"
     borderopacity="1"
     bordercolor="#666666"
     pagecolor="#ffffff" />
  <defs
     id="defs27">
    <clipPath
       id="clip0">
      <rect
         id="rect24"
         fill="white"
         height="64"
         width="64" />
    </clipPath>
  </defs>
  <g
     style="fill:#322153;fill-opacity:1"
     transform="matrix(0.12336532,0,0,0.12336532,0.40120537,0.19652068)"
     id="XMLID_1377_">
    <path
       style="fill:#322153;fill-opacity:1"
       id="XMLID_1387_"
       d="M 435.751,105.438 H 361.625 V 66.313 c 0,-28.26 -22.991,-51.251 -51.251,-51.251 H 201.626 c -28.26,0 -51.251,22.991 -51.251,51.251 v 39.124 H 76.249 C 34.205,105.438 0,139.643 0,181.687 v 239.002 c 0,42.044 34.205,76.249 76.249,76.249 h 359.502 c 42.044,0 76.249,-34.205 76.249,-76.249 V 181.687 c 0,-42.044 -34.205,-76.249 -76.249,-76.249 z M 180.375,66.313 c 0,-11.718 9.533,-21.251 21.251,-21.251 h 108.748 c 11.718,0 21.251,9.533 21.251,21.251 v 39.124 H 180.375 Z M 30,420.688 V 181.687 c 0,-20.252 13.09,-37.493 31.249,-43.738 V 464.428 C 43.09,458.181 30,440.94 30,420.688 Z m 61.249,46.25 v -331.5 h 329.502 v 331.5 z M 482,420.688 c 0,20.252 -13.09,37.493 -31.249,43.738 V 137.948 C 468.91,144.194 482,161.435 482,181.687 Z" />
    <path
       style="fill:#34cb79;fill-opacity:1"
       id="XMLID_1393_"
       d="m 346.375,256.062 h -45.25 v -45.25 c 0,-8.284 -6.716,-15 -15,-15 h -60.25 c -8.284,0 -15,6.716 -15,15 v 45.25 h -45.25 c -8.284,0 -15,6.716 -15,15 v 60.25 c 0,8.284 6.716,15 15,15 h 45.25 v 45.25 c 0,8.284 6.716,15 15,15 h 60.25 c 8.284,0 15,-6.716 15,-15 v -45.25 h 45.25 c 8.284,0 15,-6.716 15,-15 v -60.25 c 0,-8.284 -6.716,-15 -15,-15 z m -15,60.25 h -45.25 c -8.284,0 -15,6.716 -15,15 v 45.25 h -30.25 v -45.25 c 0,-8.284 -6.716,-15 -15,-15 h -45.25 v -30.25 h 45.25 c 8.284,0 15,-6.716 15,-15 v -45.25 h 30.25 v 45.25 c 0,8.284 6.716,15 15,15 h 45.25 z" />
  </g>
</svg>
